<?xml version="1.0" standalone="yes"?>
<svg xmlns="http://www.w3.org/2000/svg" width="512" height="512">
<path style="fill:#010101; stroke:none;" d="M0 0L0 18L1 18C3.43742 9.77542 9.77536 3.43741 18 1L0 0z"/>
<path style="fill:#ffffff; stroke:none;" d="M18 0.529327C9.0251 2.60339 1.33244 10.8173 0.185185 20C-3.52441 49.692 0 82.0573 0 112L0 396L0 469C0 479.648 -2.30246 492.798 4.22377 501.961C12.6809 513.834 26.173 512 39 512L121 512L378 512L457 512C468.722 512 483.7 514.472 495 511.211C509.509 507.023 512 494.006 512 481L512 400L512 114L512 41C512 30.3592 514.075 18.0277 507.072 9.09027C498.302 -2.10077 484.614 0 472 0L389 0L136 0L57 0C44.7325 0 29.9671 -2.23621 18 0.529327z"/>
<path style="fill:#010101; stroke:none;" d="M494 0L494 1C502.225 3.43744 508.563 9.77533 511 18L512 18L512 0L494 0z"/>
<path style="fill:#9fb8c5; stroke:none;" d="M274 156L274 157L277 157L274 156z"/>
<path style="fill:#119cd9; stroke:none;" d="M246 205C255.332 203.628 261.992 205.153 271 205.246C275.316 205.29 279.615 203.233 284 203.039C296.126 202.504 304.951 206.804 315 213C315 199.192 317.701 182.91 309.211 171C296.385 153.008 267.654 150.793 253.761 169.015C245.659 179.64 246 192.306 246 205z"/>
<path style="fill:#9fb8c5; stroke:none;" d="M285 156L285 157L288 157L285 156M352.667 156.333L353.333 156.667L352.667 156.333z"/>
<path style="fill:#119cd9; stroke:none;" d="M354 156L355 157L354 156z"/>
<path style="fill:#335d73; stroke:none;" d="M325 218C330.105 214.418 334.343 210.101 340 207.27C360.047 197.239 377.751 202.84 396 213C396 199.355 398.243 184.04 390.451 172.001C376.862 151.005 344.091 151.009 330.549 172C322.023 185.215 325 203.002 325 218z"/>
<path style="fill:#119cd9; stroke:none;" d="M366 156L367 157L366 156z"/>
<path style="fill:#9fb8c5; stroke:none;" d="M367.667 156.333L368.333 156.667L367.667 156.333M434.667 156.333L435.333 156.667L434.667 156.333z"/>
<path style="fill:#335d73; stroke:none;" d="M407 212C419.327 207.335 427.359 203 441 203C441.002 182.297 449.216 167.77 472 172C460.849 150.519 427.165 151.542 413.789 170.004C404.84 182.355 407 197.627 407 212z"/>
<path style="fill:#9fb8c5; stroke:none;" d="M449 156L449 157L452 157L449 156M270.667 157.333L271.333 157.667L270.667 157.333M290 157L291 158L290 157M348.667 157.333L349.333 157.667L348.667 157.333z"/>
<path style="fill:#119cd9; stroke:none;" d="M370 157L371 158L370 157z"/>
<path style="fill:#9fb8c5; stroke:none;" d="M371.667 157.333L372.333 157.667L371.667 157.333M430.667 157.333L431.333 157.667L430.667 157.333M453.667 157.333L454.333 157.667L453.667 157.333M268 158L269 159L268 158M293 158L294 159L293 158M346 158L347 159L346 158z"/>
<path style="fill:#119cd9; stroke:none;" d="M347 158L348 159L347 158M373 158L374 159L373 158z"/>
<path style="fill:#9fb8c5; stroke:none;" d="M374 158L375 159L374 158M428 158L429 159L428 158M456 158L457 159L456 158M265 159L266 160L265 159M295 159L296 160L295 159M344 159L345 160L344 159M376 159L377 160L376 159M426 159L427 160L426 159M458 159L459 160L458 159M263 160L264 161L263 160M297 160L298 161L297 160M342 160L343 161L342 160M378 160L379 161L378 160M424 160L425 161L424 160M460 160L461 161L460 160M262 161L263 162L262 161M299 161L300 162L299 161M340 161L341 162L340 161z"/>
<path style="fill:#119cd9; stroke:none;" d="M341 161L342 162L341 161M379 161L380 162L379 161z"/>
<path style="fill:#9fb8c5; stroke:none;" d="M462 161L463 162L462 161M260 162L261 163L260 162M339 162L340 163L339 162M381 162L382 163L381 162M421 162L422 163L421 162M463 162L464 163L463 162M259 163L260 164L259 163M302 163L303 164L302 163z"/>
<path style="fill:#119cd9; stroke:none;" d="M338 163L339 164L338 163M382 163L383 164L382 163M420 163L421 164L420 163z"/>
<path style="fill:#9fb8c5; stroke:none;" d="M303 164L304 165L303 164M336 164L337 165L336 164z"/>
<path style="fill:#119cd9; stroke:none;" d="M383 164L384 165L383 164z"/>
<path style="fill:#9fb8c5; stroke:none;" d="M466 164L467 165L466 164M304 165L305 166L304 165M335 165L336 166L335 165M385 165L386 166L385 165M467 165L468 166L467 165M305 166L306 167L305 166M334 166L335 167L334 166M416 166L417 167L416 166M468 166L469 167L468 166M306 167L307 168L306 167M333 167L334 168L333 167M469 167L470 168L469 167M307 168L308 169L307 168M253 169L254 170L253 169z"/>
<path style="fill:#119cd9; stroke:none;" d="M332 169L333 170L332 169M388 169L389 170L388 169z"/>
<path style="fill:#9fb8c5; stroke:none;" d="M252 170L253 171L252 170z"/>
<path style="fill:#119cd9; stroke:none;" d="M331 170L332 171L331 170z"/>
<path style="fill:#9fb8c5; stroke:none;" d="M389 170L390 171L389 170M413 170L414 171L413 170z"/>
<path style="fill:#119cd9; stroke:none;" d="M471 170L472 171L471 170z"/>
<path style="fill:#9fb8c5; stroke:none;" d="M309 171L310 172L309 171M330 171L331 172L330 171M390 171L391 172L390 171M412 171L413 172L412 171z"/>
<path style="fill:#119cd9; stroke:none;" d="M456 171L457 172L456 171z"/>
<path style="fill:#9fb8c5; stroke:none;" d="M457.667 171.333L458.333 171.667L457.667 171.333M467 171L467 172L470 172L467 171M472.333 171.667L472.667 172.333L472.333 171.667M251 172L252 173L251 172M310 172L311 173L310 172z"/>
<path style="fill:#119cd9; stroke:none;" d="M453 172L454 173L453 172z"/>
<path style="fill:#9fb8c5; stroke:none;" d="M454 172L455 173L454 172z"/>
<path style="fill:#119cd9; stroke:none;" d="M329 173L330 174L329 173z"/>
<path style="fill:#9fb8c5; stroke:none;" d="M391 173L392 174L391 173M411 173L412 174L411 173z"/>
<path style="fill:#119cd9; stroke:none;" d="M451 173L452 174L451 173z"/>
<path style="fill:#9fb8c5; stroke:none;" d="M311 174L312 175L311 174M328 174L329 175L328 174M450 174L451 175L450 174M249 175L250 176L249 175z"/>
<path style="fill:#119cd9; stroke:none;" d="M328 175L329 176L328 175M392 175L393 176L392 175z"/>
<path style="fill:#9fb8c5; stroke:none;" d="M410 175L411 176L410 175z"/>
<path style="fill:#119cd9; stroke:none;" d="M448 175L449 176L448 175z"/>
<path style="fill:#9fb8c5; stroke:none;" d="M312 176L313 177L312 176M327 176L328 177L327 176M447 176L448 177L447 176M248.333 177.667L248.667 178.333L248.333 177.667z"/>
<path style="fill:#119cd9; stroke:none;" d="M327 177L328 178L327 177z"/>
<path style="fill:#9fb8c5; stroke:none;" d="M393 177L394 178L393 177M409 177L410 178L409 177M446 177L447 178L446 177M313.333 178.667L313.667 179.333L313.333 178.667M326 179L327 180L326 179M394 179L395 180L394 179M408 179L409 180L408 179M247.333 180.667L247.667 181.333L247.333 180.667z"/>
<path style="fill:#119cd9; stroke:none;" d="M326 180L327 181L326 180M394 180L395 181L394 180M408 180L409 181L408 180z"/>
<path style="fill:#9fb8c5; stroke:none;" d="M444 180L445 181L444 180M314 182L315 183L314 182M325 182L326 183L325 182M395.333 182.667L395.667 183.333L395.333 182.667M407.333 182.667L407.667 183.333L407.333 182.667M443 182L444 183L443 182M193.667 183.333L194.333 183.667L193.667 183.333z"/>
<path style="fill:#119cd9; stroke:none;" d="M169 206C179.06 202.126 185.054 205.242 195 205.11C211.066 204.896 219.432 203.518 235 210C227.436 178.155 178.902 172.349 169 206z"/>
<path style="fill:#9fb8c5; stroke:none;" d="M208.667 183.333L209.333 183.667L208.667 183.333z"/>
<path style="fill:#119cd9; stroke:none;" d="M325 183L326 184L325 183z"/>
<path style="fill:#9fb8c5; stroke:none;" d="M190 184L191 185L190 184M212 184L213 185L212 184M246 184L246 188L247 188L246 184z"/>
<path style="fill:#119cd9; stroke:none;" d="M395 184L396 185L395 184z"/>
<path style="fill:#9fb8c5; stroke:none;" d="M459 184L460 185L459 184z"/>
<path style="fill:#335d73; stroke:none;" d="M456 224C449.767 220.544 444.281 217.074 437 216.304C393.151 211.669 391.87 288.084 437 285.96C444.424 285.61 449.903 281.759 456 278C456.395 285.148 466.178 290.339 470.682 282.772C474.497 276.361 472 263.266 472 256L472 208C472 202.307 473.697 193.218 470.821 188.109C467.804 182.749 458.06 182.531 456.318 189.044C453.566 199.334 456 213.341 456 224z"/>
<path style="fill:#9fb8c5; stroke:none;" d="M467 184L468 185L467 184M187 185L188 186L187 185M214 185L215 186L214 185M442.333 185.667L442.667 186.333L442.333 185.667M457 185L458 186L457 185M469 185L470 186L469 185M185 186L186 187L185 186M324 186L324 190L325 190L324 186M456 186L457 187L456 186M470 186L471 187L470 186M183 187L184 188L183 187M218 187L219 188L218 187M315 187L315 213L316 213L315 187M396 187L395 214C399.23 210.304 398.118 192.047 396 187M220 188L221 189L220 188M406 188L406 213L407 213L406 188M455 188L455 224L456 224C456 213.613 459.011 197.56 455 188M471 188L472 189L471 188M180 189L181 190L180 189M179 190L180 191L179 190z"/>
<path style="fill:#119cd9; stroke:none;" d="M324 190L324 219L325 219L324 190z"/>
<path style="fill:#9fb8c5; stroke:none;" d="M178 191L179 192L178 191M224 191L225 192L224 191M58 192L58 193L64 193L58 192M225 192L226 193L225 192z"/>
<path style="fill:#119cd9; stroke:none;" d="M441 192L441 203L442 203L441 192z"/>
<path style="fill:#9fb8c5; stroke:none;" d="M55 193L56 194L55 193z"/>
<path style="fill:#335d73; stroke:none;" d="M53 218C49.9738 218 45.9281 217.377 43.2284 219.028C31.8824 225.966 46.0927 233.981 53 234C53 246.519 49.1143 267.174 56.7029 277.957C61.1613 284.292 83.74 292.3 86.6821 280.981C90.1144 267.775 75.4844 273.242 70.9383 265.941C66.0917 258.158 69 242.869 69 234C73.9008 234 81.4885 235.405 85.8519 232.821C89.9339 230.404 90.3991 221.81 86.6821 218.858C82.0854 215.207 73.1986 220.355 70.0278 215.678C66.2231 210.067 71.7106 201.085 67.821 195.434C65.1939 191.617 55.7507 191.929 53.7423 196.228C51.0981 201.889 53 211.825 53 218z"/>
<path style="fill:#9fb8c5; stroke:none;" d="M66 193L67 194L66 193M226 193L227 194L226 193M175 194L176 195L175 194M227 194L228 195L227 194M53 195L54 196L53 195M68 195L69 196L68 195M174 195L175 196L174 195M173 196L174 197L173 196M69 197L69 217L70 217L69 197M229 197L230 198L229 197M52 198L52 217L44 217L44 218L53 218L52 198M172 198L173 199L172 198M230 198L231 199L230 198M171 199L172 200L171 199M231 200L232 201L231 200M170 201L171 202L170 201M232 202L233 203L232 202z"/>
<path style="fill:#119cd9; stroke:none;" d="M353 202L353 203L356 203L353 202z"/>
<path style="fill:#9fb8c5; stroke:none;" d="M356 202L356 203L359 203L356 202M368 202L368 203L372 203L368 202z"/>
<path style="fill:#119cd9; stroke:none;" d="M372.667 202.333L373.333 202.667L372.667 202.333z"/>
<path style="fill:#9fb8c5; stroke:none;" d="M169 203L170 204L169 203M175 203L175 204L178 204L175 203M186.667 203.333L187.333 203.667L186.667 203.333M202.667 203.333L203.333 203.667L202.667 203.333M216.667 203.333L217.333 203.667L216.667 203.333M252 203L252 204L255 204L252 203M262 203L262 204L265 204L262 203M279.667 203.333L280.333 203.667L279.667 203.333M293.667 203.333L294.333 203.667L293.667 203.333z"/>
<path style="fill:#119cd9; stroke:none;" d="M349 203L350 204L349 203z"/>
<path style="fill:#9fb8c5; stroke:none;" d="M350.667 203.333L351.333 203.667L350.667 203.333M375.667 203.333L376.333 203.667L375.667 203.333z"/>
<path style="fill:#119cd9; stroke:none;" d="M377 203L378 204L377 203z"/>
<path style="fill:#9fb8c5; stroke:none;" d="M427 203L427 204L430 204L427 203M439 203L439 204L442 204L439 203M172 204L173 205L172 204M191 204L192 205L191 204M198 204L199 205L198 204M221.667 204.333L222.333 204.667L221.667 204.333M233 204L234 205L233 204M249 204L250 205L249 204M267 204L268 205L267 204M274.667 204.333L275.333 204.667L274.667 204.333M298 204L299 205L298 204z"/>
<path style="fill:#119cd9; stroke:none;" d="M346 204L347 205L346 204z"/>
<path style="fill:#9fb8c5; stroke:none;" d="M347 204L348 205L347 204M379 204L380 205L379 204z"/>
<path style="fill:#119cd9; stroke:none;" d="M380 204L381 205L380 204z"/>
<path style="fill:#9fb8c5; stroke:none;" d="M423.667 204.333L424.333 204.667L423.667 204.333M170 205L171 206L170 205M193 205L194 206L193 205M195 205L196 206L195 205M225 205L226 206L225 205M246 205L247 206L246 205M272 205L273 206L272 205M301 205L302 206L301 205z"/>
<path style="fill:#119cd9; stroke:none;" d="M343 205L344 206L343 205z"/>
<path style="fill:#9fb8c5; stroke:none;" d="M344 205L345 206L344 205M382 205L383 206L382 205M420 205L421 206L420 205M227 206L228 207L227 206M304 206L305 207L304 206z"/>
<path style="fill:#119cd9; stroke:none;" d="M341 206L342 207L341 206z"/>
<path style="fill:#9fb8c5; stroke:none;" d="M384 206L385 207L384 206z"/>
<path style="fill:#119cd9; stroke:none;" d="M385 206L386 207L385 206M417 206L418 207L417 206z"/>
<path style="fill:#9fb8c5; stroke:none;" d="M229 207L230 208L229 207M234 207L235 208L234 207M306 207L307 208L306 207M339 207L340 208L339 207M386 207L387 208L386 207z"/>
<path style="fill:#119cd9; stroke:none;" d="M387 207L388 208L387 207z"/>
<path style="fill:#9fb8c5; stroke:none;" d="M415 207L416 208L415 207M231 208L232 209L231 208M308 208L309 209L308 208z"/>
<path style="fill:#119cd9; stroke:none;" d="M337 208L338 209L337 208z"/>
<path style="fill:#9fb8c5; stroke:none;" d="M388 208L389 209L388 208M413 208L414 209L413 208M233 209L234 210L233 209M309 209L310 210L309 209z"/>
<path style="fill:#119cd9; stroke:none;" d="M335 209L336 210L335 209z"/>
<path style="fill:#9fb8c5; stroke:none;" d="M336 209L337 210L336 209z"/>
<path style="fill:#119cd9; stroke:none;" d="M390 209L391 210L390 209z"/>
<path style="fill:#9fb8c5; stroke:none;" d="M412 209L413 210L412 209M234 210L235 211L234 210M311 210L312 211L311 210M334 210L335 211L334 210M391 210L392 211L391 210M410 210L411 211L410 210z"/>
<path style="fill:#119cd9; stroke:none;" d="M332 211L333 212L332 211z"/>
<path style="fill:#9fb8c5; stroke:none;" d="M333 211L334 212L333 211z"/>
<path style="fill:#119cd9; stroke:none;" d="M393 211L394 212L393 211M331 212L332 213L331 212M394 212L395 213L394 212M407 212L408 213L407 212z"/>
<path style="fill:#9fb8c5; stroke:none;" d="M330 213L331 214L330 213M329 214L330 215L329 214M328 215L329 216L328 215M357 215L357 216L361 216L357 215z"/>
<path style="fill:#335d73; stroke:none;" d="M345 256C356.345 256 382.986 260.885 391.581 252.442C399.401 244.761 393.492 229.597 386.816 223.329C376.967 214.082 359.996 213.166 348 218.338C313.1 233.385 325.663 283.413 361 286.83C368.69 287.574 398.2 285.023 389.896 271.059C385.731 264.055 377.789 270.096 372 271.331C360.375 273.811 347.288 268.632 345 256z"/>
<path style="fill:#9fb8c5; stroke:none;" d="M367 215L367 216L371 216L367 215M121 216L121 217L126 217L121 216z"/>
<path style="fill:#335d73; stroke:none;" d="M148 276C147.449 283.399 154.748 290.561 161.486 283.566C164.781 280.146 164 274.333 164 270C164.001 255.599 167.545 235.82 163.427 222.019C160.23 211.301 148.109 216.746 148 226C142.944 221.175 138.128 217.629 131 216.965C125.16 216.422 119.38 216.831 114 219.324C77.5223 236.228 98.4158 299.928 137 284.235C141.397 282.447 144.662 279.266 148 276z"/>
<path style="fill:#9fb8c5; stroke:none;" d="M127 216L127 217L133 217L127 216M151.667 216.333L152.333 216.667L151.667 216.333M158.667 216.333L159.333 216.667L158.667 216.333M177.667 216.333L178.333 216.667L177.667 216.333z"/>
<path style="fill:#335d73; stroke:none;" d="M190 278C195.937 281.292 200.993 284.645 208 284.961C254.164 287.041 251.943 211.665 208 216.174C200.966 216.896 195.753 220.246 190 224C189.479 217.169 179.458 212.253 175.028 219.279C171.781 224.428 174 236.056 174 242L174 288C174 293.668 172.334 302.546 174.742 307.775C177.094 312.884 187.115 313.155 189.397 307.856C192.695 300.195 190 286.32 190 278z"/>
<path style="fill:#9fb8c5; stroke:none;" d="M184 216L184 217L187 217L184 216M203 216L203 217L206 217L203 216M215.667 216.333L216.333 216.667L215.667 216.333M254.667 216.333L255.333 216.667L254.667 216.333z"/>
<path style="fill:#335d73; stroke:none;" d="M267 278C272.453 281.283 277.476 284.429 284 284.91C332.448 288.477 327.482 208.056 282 216.619C276.203 217.71 271.733 220.639 267 224C266.211 217.083 256.735 212.588 251.938 219.279C248.133 224.587 250 234.831 250 241L250 286C250 292.417 248.596 300.878 251.032 306.942C253.293 312.568 263.533 313.694 266.258 307.775C269.72 300.255 267 286.234 267 278z"/>
<path style="fill:#9fb8c5; stroke:none;" d="M261.667 216.333L262.333 216.667L261.667 216.333M280 216L280 217L283 217L280 216M291 216L291 217L294 217L291 216M327 216L328 217L327 216M352.667 216.333L353.333 216.667L352.667 216.333M374 216L375 217L374 216M429 216L429 217L432 217L429 216M438 216L438 217L441 217L438 216M70 217L70 218L76 218L70 217M84.6667 217.333L85.3333 217.667L84.6667 217.333M117.667 217.333L118.333 217.667L117.667 217.333M135 217L136 218L135 217M149 217L150 218L149 217M161 217L162 218L161 217M175 217L176 218L175 217M188 217L189 218L188 217M200.667 217.333L201.333 217.667L200.667 217.333M219.667 217.333L220.333 217.667L219.667 217.333M252 217L253 218L252 217M264 217L265 218L264 217M277 217L278 218L277 217M296 217L297 218L296 217M326 217L327 218L326 217M349 217L350 218L349 217M377 217L378 218L377 217M425.667 217.333L426.333 217.667L425.667 217.333M443.667 217.333L444.333 217.667L443.667 217.333M42 218L43 219L42 218M87 218L88 219L87 218M115 218L116 219L115 218M138 218L139 219L138 218M148 218L149 219L148 218M162 218L163 219L162 218M189 218L190 219L189 218M198 218L199 219L198 218M222 218L223 219L222 218M251 218L252 219L251 218M275 218L276 219L275 218M299 218L300 219L299 218M325 218L326 219L325 218M347 218L348 219L347 218M379 218L380 219L379 218M423 218L424 219L423 218M446 218L447 219L446 218M41 219L42 220L41 219M88 219L89 220L88 219M113 219L114 220L113 219M140 219L141 220L140 219M196 219L197 220L196 219M224 219L225 220L224 219M266 219L267 220L266 219M273 219L274 220L273 219M301 219L302 220L301 219M324 219L325 220L324 219M345 219L346 220L345 219M381 219L382 220L381 219M421 219L422 220L421 219M448 219L449 220L448 219M111 220L112 221L111 220M141 220L142 221L141 220M147 220L147 226L148 226L147 220M163.333 220.667L163.667 221.333L163.333 220.667M190 220L192 224L190 220M226 220L227 221L226 220M250 220L250 223L251 223L250 220M271 220L272 221L271 220M343 220L344 221L343 220M383 220L384 221L383 220M419 220L420 221L419 220M450 220L451 221L450 220M40 221L41 222L40 221M89 221L89 230L90 230L89 221M109 221L110 222L109 221M173 221L173 307L174 307L174 248L173 221M193 221L194 222L193 221M227 221L228 222L227 221M267 221L267 224L268 224L267 221M270 221L271 222L270 221M304 221L305 222L304 221M384 221L385 222L384 221M417 221L418 222L417 221M451 221L452 222L451 221M108 222L109 223L108 222M144 222L145 223L144 222M192 222L193 223L192 222M269 222L270 223L269 222M340 222L341 223L340 222M416 222L417 223L416 222M145 223L146 224L145 223M230 223L231 224L230 223M339 223L340 224L339 223M231 224L232 225L231 224M104 225L105 226L104 225M232 225L233 226L232 225M103 226L104 227L103 226M233 226L234 227L233 226M389 226L390 227L389 226M234 227L235 228L234 227M390 227L391 228L390 227M334 228L335 229L334 228M410 228L411 229L410 228M40.3333 229.667L40.6667 230.333L40.3333 229.667M312 229L313 230L312 229M333 229L334 230L333 229M391 229L392 230L391 229M409 229L410 230L409 229M100 230L101 231L100 230M236 230L237 231L236 230M313 230L314 231L313 230M359 230L359 231L368 231L359 230M392 230L393 231L392 230M88 231L89 232L88 231M99 231L100 232L99 231M237 231L238 232L237 231M356 231L357 232L356 231z"/>
<path style="fill:#ffffff; stroke:none;" d="M345 246L360 246C364.506 246 373.91 247.744 377.393 244.258C381.772 239.874 374.819 233.564 370.999 232.009C359.186 227.201 347.759 234.389 345 246z"/>
<path style="fill:#9fb8c5; stroke:none;" d="M370 231L371 232L370 231M87 232L88 233L87 232M127 232L127 233L130 233L127 232M314 232L315 233L314 232M331 232L332 233L331 232M354 232L355 233L354 232M372 232L373 233L372 232M393.333 232.667L393.667 233.333L393.333 232.667M407 232L408 233L407 232M43.6667 233.333L44.3333 233.667L43.6667 233.333M85.6667 233.333L86.3333 233.667L85.6667 233.333M98 233L99 234L98 233M123 233L124 234L123 233z"/>
<path style="fill:#ffffff; stroke:none;" d="M124 233.533C101.511 238.991 111.172 274.439 134 268.442C155.306 262.845 145.84 228.233 124 233.533z"/>
<path style="fill:#9fb8c5; stroke:none;" d="M133.667 233.333L134.333 233.667L133.667 233.333M203.667 233.333L204.333 233.667L203.667 233.333z"/>
<path style="fill:#ffffff; stroke:none;" d="M205 233.469C182.904 237.645 189.358 272.722 212 268.671C233.23 264.871 227.14 229.285 205 233.469z"/>
<path style="fill:#9fb8c5; stroke:none;" d="M212.667 233.333L213.333 233.667L212.667 233.333M238 233L239 234L238 233M279.667 233.333L280.333 233.667L279.667 233.333z"/>
<path style="fill:#ffffff; stroke:none;" d="M281 233.532C259.547 238.611 266.687 273.619 289 268.606C310.421 263.795 303.297 228.254 281 233.532z"/>
<path style="fill:#9fb8c5; stroke:none;" d="M289.667 233.333L290.333 233.667L289.667 233.333M352 233L353 234L352 233M374 233L375 234L374 233M432.667 233.333L433.333 233.667L432.667 233.333z"/>
<path style="fill:#ffffff; stroke:none;" d="M434 233.472C411.606 237.546 418.016 272.812 441 268.671C462.232 264.845 455.83 229.501 434 233.472z"/>
<path style="fill:#9fb8c5; stroke:none;" d="M440.667 233.333L441.333 233.667L440.667 233.333M52 234L52 265L53 265L52 234M69 234L69 263L70 263L69 234M120 234L121 235L120 234M136 234L137 235L136 234M200 234L201 235L200 234M215.667 234.333L216.333 234.667L215.667 234.333M277 234L278 235L277 234M292 234L293 235L292 234M315 234L316 235L315 234M330 234L331 235L330 234M375 234L376 235L375 234M406 234L407 235L406 234M429 234L430 235L429 234M444 234L445 235L444 234M97 235L98 236L97 235M138 235L139 236L138 235M217 235L218 236L217 235M239 235L240 236L239 235M275 235L276 236L275 235M294 235L295 236L294 235M376 235L377 236L376 235M394.333 235.667L394.667 236.333L394.333 235.667M446 235L447 236L446 235M117 236L118 237L117 236M139 236L140 237L139 236M197 236L198 237L197 236M219 236L220 237L219 236M274 236L275 237L274 236M316 236L317 237L316 236M329 236L330 237L329 236M377 236L378 237L377 236M405 236L406 237L405 236M426 236L427 237L426 236M447 236L448 237L447 236M96 237L97 238L96 237M116 237L117 238L116 237M140 237L141 238L140 237M196 237L197 238L196 237M220 237L221 238L220 237M240.333 237.667L240.667 238.333L240.333 237.667M425 237L426 238L425 237M115 238L116 239L115 238M141 238L142 239L141 238M195 238L196 239L195 238M221 238L222 239L221 238M317.333 238.667L317.667 239.333L317.333 238.667M347 238L348 239L347 238M378 238L379 239L378 238M404.333 238.667L404.667 239.333L404.333 238.667M424 238L425 239L424 238M95.3333 239.667L95.6667 240.333L95.3333 239.667M114 239L115 240L114 239M142 239L143 240L142 239M194 239L195 240L194 239M271 239L272 240L271 239M328.333 239.667L328.667 240.333L328.333 239.667M423 239L424 240L423 239M450 239L451 240L450 239M241.333 240.667L241.667 241.333L241.333 240.667M270 240L271 241L270 240M299 240L300 241L299 240M346 240L347 241L346 240M395 240L395 244L396 244L395 240M451 240L452 241L451 240M113 241L114 242L113 241M193 241L194 242L193 241M223 241L224 242L223 241M318 241L318 244L319 244L318 241M112.333 242.667L112.667 243.333L112.333 242.667M144 242L145 243L144 242M192.333 242.667L192.667 243.333L192.333 242.667M269 242L270 243L269 242M300 242L301 243L300 242M345.333 242.667L345.667 243.333L345.333 242.667M403.333 242.667L403.667 243.333L403.333 242.667M421 242L422 243L421 242M452 242L453 243L452 242M94 243L94 246L95 246L94 243M224.333 243.667L224.667 244.333L224.333 243.667M327 243L327 246L328 246L327 243M242 244L242 248L243 248L242 244M268.333 244.667L268.667 245.333L268.333 244.667M301.333 244.667L301.667 245.333L301.333 244.667M378 244L379 245L378 244M453 244L454 245L453 244M111.333 245.667L111.667 246.333L111.333 245.667M145 245L146 246L145 245M191.333 245.667L191.667 246.333L191.333 245.667M376.667 245.333L377.333 245.667L376.667 245.333M420 245L421 246L420 245M225 246L225 256L226 256L225 246M319 247L319 255L320 255L319 247M394.333 247.667L394.667 248.333L394.333 247.667M402 247L402 255L403 255L402 247M267 248L267 255L268 255L267 248M454 248L454 255L455 255L454 248M302 249L302 253L303 253L302 249M419 249L419 254L420 254L419 249M110 250L110 253L111 253L110 250M393 250L394 251L393 250M390 253L391 254L390 253M242 254L242 258L243 258L242 254M389 254L390 255L389 254M191.333 255.667L191.667 256.333L191.333 255.667M327 255L327 258L328 258L327 255M386.667 255.333L387.333 255.667L386.667 255.333M94 256L94 259L95 259L94 256M111.333 256.667L111.667 257.333L111.333 256.667M145.333 256.667L145.667 257.333L145.333 256.667M301.333 256.667L301.667 257.333L301.333 256.667M224.333 257.667L224.667 258.333L224.333 257.667M268 257L269 258L268 257M420 257L421 258L420 257M453 257L454 258L453 257M345.333 258.667L345.667 259.333L345.333 258.667M403 258L403 261L404 261L403 258M112 259L113 260L112 259M144 259L145 260L144 259M192 259L193 260L192 259M269 259L270 260L269 259M300 259L301 260L300 259M318.333 259.667L318.667 260.333L318.333 259.667M421 259L422 260L421 259M223 260L224 261L223 260M241.333 260.667L241.667 261.333L241.333 260.667M328.333 260.667L328.667 261.333L328.333 260.667M452 260L453 261L452 260M95.3333 261.667L95.6667 262.333L95.3333 261.667M143 261L144 262L143 261M270 261L271 262L270 261M299 261L300 262L299 261M346 261L347 262L346 261M422 261L423 262L422 261M451 261L452 262L451 261M114 262L115 263L114 262M142 262L143 263L142 262M194 262L195 263L194 262M298 262L299 263L298 262M317.333 262.667L317.667 263.333L317.333 262.667M404.333 262.667L404.667 263.333L404.333 262.667M115 263L116 264L115 263M195 263L196 264L195 263M221 263L222 264L221 263M240.333 263.667L240.667 264.333L240.333 263.667M347 263L348 264L347 263M450 263L451 264L450 263M96 264L97 265L96 264M116 264L117 265L116 264M220 264L221 265L220 264M329 264L330 265L329 264M348 264L349 265L348 264M449 264L450 265L449 264M117 265L118 266L117 265M197 265L198 266L197 265M219 265L220 266L219 265M295 265L296 266L295 265M316 265L317 266L316 265M405 265L406 266L405 265M448 265L449 266L448 265M70 266L71 267L70 266M97 266L98 267L97 266M118 266L119 267L118 266M138 266L139 267L138 266M198 266L199 267L198 266M239 266L240 267L239 266M275 266L276 267L275 266M294 266L295 267L294 266M330 266L331 267L330 266M427 266L428 267L427 266M120 267L121 268L120 267M137 267L138 268L137 267M200 267L201 268L200 267M216 267L217 268L216 267M277 267L278 268L277 267M292 267L293 268L292 267M315 267L316 268L315 267M351 267L352 268L351 267M382 267L383 268L382 267M387 267L388 268L387 267M406 267L407 268L406 267M445 267L446 268L445 267M98 268L99 269L98 268M122.667 268.333L123.333 268.667L122.667 268.333M134 268L135 269L134 268M202.667 268.333L203.333 268.667L202.667 268.333M213 268L214 269L213 268M238 268L239 269L238 268M279 268L280 269L279 268M290 268L291 269L290 268M331 268L332 269L331 268M352 268L353 269L352 268M380 268L381 269L380 268M388 268L389 269L388 268M431 268L432 269L431 268M442.667 268.333L443.333 268.667L442.667 268.333M53 269L53 272L54 272L53 269M73.6667 269.333L74.3333 269.667L73.6667 269.333M126 269L126 270L132 270L126 269M206 269L206 270L210 270L206 269M283 269L283 270L287 270L283 269M314 269L315 270L314 269M354 269L355 270L354 269M377.667 269.333L378.333 269.667L377.667 269.333M389 269L390 270L389 269M407 269L408 270L407 269M434 269L434 270L440 270L434 269M82 270L82 271L85 271L82 270M99 270L100 271L99 270M237 270L238 271L237 270M332 270L333 271L332 270M356.667 270.333L357.333 270.667L356.667 270.333M374.667 270.333L375.333 270.667L374.667 270.333M85 271L86 272L85 271M236 271L237 272L236 271M360 271L360 272L363 272L360 271M368 271L368 272L372 272L368 271M390 271L391 272L390 271M408 271L409 272L408 271M86 272L87 273L86 272M312 272L313 273L312 272M409 272L410 273L409 272M54.3333 273.667L54.6667 274.333L54.3333 273.667M101 273L102 274L101 273M311 273L312 274L311 273M334 273L335 274L334 273M391.333 273.667L391.667 274.333L391.333 273.667M102 274L103 275L102 274M335 274L336 275L335 274M87 275L87 281L88 281L87 275M103 275L104 276L103 275M233 275L234 276L233 275M411 275L412 276L411 275M55 276L56 277L55 276M104 276L105 277L104 276M147 276L147 280L148 280L147 276M232 276L233 277L232 276M391.333 276.667L391.667 277.333L391.333 276.667M412 276L413 277L412 276M105 277L106 278L105 277M413 277L414 278L413 277M106 278L107 279L106 278M145 278L146 279L145 278M190 278L190 308L191 308L192 278L190 278M267 278L267 306L268 306L269 278L267 278M306 278L307 279L306 278M414 278L415 279L414 278M455 278L455 283L456 283L455 278M57 279L58 280L57 279M107 279L108 280L107 279M144 279L145 280L144 279M228 279L229 280L228 279M269 279L270 280L269 279M305 279L306 280L305 279M340 279L341 280L340 279M58 280L59 281L58 280M143 280L144 281L143 280M163.333 280.667L163.667 281.333L163.333 280.667M194 280L195 281L194 280M227 280L228 281L227 280M270 280L271 281L270 280M341 280L342 281L341 280M389 280L390 281L389 280M417 280L418 281L417 280M110 281L111 282L110 281M142 281L143 282L142 281M147.333 281.667L147.667 282.333L147.333 281.667M195 281L196 282L195 281M225 281L226 282L225 281M272 281L273 282L272 281M302 281L303 282L302 281M343 281L344 282L343 281M418 281L419 282L418 281M450 281L451 282L450 281M471.333 281.667L471.667 282.333L471.333 281.667M61 282L62 283L61 282M112 282L113 283L112 282M140 282L141 283L140 282M197 282L198 283L197 282M223 282L224 283L223 282M274 282L275 283L274 282M300 282L301 283L300 282M344 282L345 283L344 282M386 282L387 283L386 282M420 282L421 283L420 282M449 282L450 283L449 282M63 283L64 284L63 283M86 283L87 284L86 283M114 283L115 284L114 283M139 283L140 284L139 283M148 283L149 284L148 283M162 283L163 284L162 283M199 283L200 284L199 283M221 283L222 284L221 283M276 283L277 284L276 283M297.667 283.333L298.333 283.667L297.667 283.333M324 283L331 290L324 283M346 283L347 284L346 283M384 283L385 284L384 283M422 283L423 284L422 283M447 283L448 284L447 283M456 283L457 284L456 283M65 284L66 285L65 284M85 284L86 285L85 284M116 284L117 285L116 284M136.667 284.333L137.333 284.667L136.667 284.333M161 284L162 285L161 284M202.667 284.333L203.333 284.667L202.667 284.333M217.667 284.333L218.333 284.667L217.667 284.333M278 284L278 285L281 285L278 284M294.667 284.333L295.333 284.667L294.667 284.333z"/>
<path style="fill:#119cd9; stroke:none;" d="M324 284L324 295L325 295L324 284z"/>
<path style="fill:#9fb8c5; stroke:none;" d="M348.667 284.333L349.333 284.667L348.667 284.333M381.667 284.333L382.333 284.667L381.667 284.333M424 284L425 285L424 284M444.667 284.333L445.333 284.667L444.667 284.333M68.6667 285.333L69.3333 285.667L68.6667 285.333M84 285L85 286L84 285M119.667 285.333L120.333 285.667L119.667 285.333M133.667 285.333L134.333 285.667L133.667 285.333M150.667 285.333L151.333 285.667L150.667 285.333M159.667 285.333L160.333 285.667L159.667 285.333M208 285L208 286L213 286L208 285M284 285L284 286L290 286L284 285z"/>
<path style="fill:#335d73; stroke:none;" d="M325 285C325 300.078 326.736 312.714 340 322.211C363.408 338.973 395.43 320.609 396 293C369.748 306.81 348.056 301.047 325 285z"/>
<path style="fill:#9fb8c5; stroke:none;" d="M351.667 285.333L352.333 285.667L351.667 285.333M378 285L379 286L378 285M427.667 285.333L428.333 285.667L427.667 285.333M441.667 285.333L442.333 285.667L441.667 285.333M458 285L459 286L458 285M468 285L469 286L468 285M75 286L75 287L81 287L75 286M356 286L356 287L359 287L356 286M371 286L371 287L375 287L371 286M95 288L95 309L96 309L95 288M315 289L315 325L316 325C316 314.613 319.011 298.56 315 289z"/>
<path style="fill:#119cd9; stroke:none;" d="M96 290C96 304.299 95.0852 317.552 107.004 327.787C129.999 347.535 158.997 326.417 159 300L142 298.267L116 299.101L96 290z"/>
<path style="fill:#9fb8c5; stroke:none;" d="M98 290L99 291L98 290M313 290L314 291L313 290z"/>
<path style="fill:#119cd9; stroke:none;" d="M314 290C303.197 297.124 293.716 299 281 299C280.986 320.712 265.668 329.289 246 323C251.055 349.831 280.267 368.419 303.96 347.674C316.345 336.831 315 321.896 315 307C315 301.65 316.085 294.969 314 290M331 290L332 291L331 290z"/>
<path style="fill:#9fb8c5; stroke:none;" d="M99 291L100 292L99 291M235 291L236 292L235 291M333 291L334 292L333 291M101 292L102 293L101 292z"/>
<path style="fill:#119cd9; stroke:none;" d="M204 299C204 323.687 187.583 327.873 167 322C167.244 351.503 202.636 368.434 224.96 347.816C240.052 333.877 236 310.469 236 292C224.477 296.193 216.497 299.158 204 299z"/>
<path style="fill:#9fb8c5; stroke:none;" d="M310 292L311 293L310 292M334 292L335 293L334 292M396 292L396 298L397 298L396 292M102.667 293.333L103.333 293.667L102.667 293.333M232 293L233 294L232 293M336 293L337 294L336 293M394 293L395 294L394 293M104 294L105 295L104 294M230 294L231 295L230 294z"/>
<path style="fill:#119cd9; stroke:none;" d="M337 294L338 295L337 294z"/>
<path style="fill:#9fb8c5; stroke:none;" d="M392 294L393 295L392 294z"/>
<path style="fill:#119cd9; stroke:none;" d="M393 294L394 295L393 294z"/>
<path style="fill:#9fb8c5; stroke:none;" d="M106 295L107 296L106 295M228 295L229 296L228 295M304 295L305 296L304 295M324 295L324 299L325 299L324 295M339 295L340 296L339 295M391 295L392 296L391 295M108 296L109 297L108 296M225.667 296.333L226.333 296.667L225.667 296.333M302 296L303 297L302 296z"/>
<path style="fill:#119cd9; stroke:none;" d="M341 296L342 297L341 296z"/>
<path style="fill:#9fb8c5; stroke:none;" d="M342 296L343 297L342 296M388 296L389 297L388 296z"/>
<path style="fill:#119cd9; stroke:none;" d="M389 296L390 297L389 296z"/>
<path style="fill:#9fb8c5; stroke:none;" d="M110.667 297.333L111.333 297.667L110.667 297.333M141 297L141 298L144 298L141 297M222.667 297.333L223.333 297.667L222.667 297.333M299 297L300 298L299 297z"/>
<path style="fill:#119cd9; stroke:none;" d="M343 297L344 298L343 297z"/>
<path style="fill:#9fb8c5; stroke:none;" d="M344 297L345 298L344 297M386 297L387 298L386 297z"/>
<path style="fill:#119cd9; stroke:none;" d="M387 297L388 298L387 297z"/>
<path style="fill:#9fb8c5; stroke:none;" d="M113.667 298.333L114.333 298.667L113.667 298.333M138.667 298.333L139.333 298.667L138.667 298.333M145 298L146 299L145 298M218.667 298.333L219.333 298.667L218.667 298.333M294.667 298.333L295.333 298.667L294.667 298.333z"/>
<path style="fill:#119cd9; stroke:none;" d="M346 298L347 299L346 298z"/>
<path style="fill:#9fb8c5; stroke:none;" d="M347 298L348 299L347 298M382.667 298.333L383.333 298.667L382.667 298.333z"/>
<path style="fill:#119cd9; stroke:none;" d="M384 298L385 299L384 298z"/>
<path style="fill:#9fb8c5; stroke:none;" d="M117.667 299.333L118.333 299.667L117.667 299.333M134.667 299.333L135.333 299.667L134.667 299.333M148.667 299.333L149.333 299.667L148.667 299.333M210 299L211 300L210 299M280 299L280 309L281 309L280 299z"/>
<path style="fill:#119cd9; stroke:none;" d="M349 299L350 300L349 299z"/>
<path style="fill:#9fb8c5; stroke:none;" d="M350.667 299.333L351.333 299.667L350.667 299.333M378.667 299.333L379.333 299.667L378.667 299.333z"/>
<path style="fill:#119cd9; stroke:none;" d="M380 299L381 300L380 299M395.333 299.667L395.667 300.333L395.333 299.667z"/>
<path style="fill:#9fb8c5; stroke:none;" d="M123 300L123 301L130 301L123 300M159 300L159 308L160 308L159 300z"/>
<path style="fill:#119cd9; stroke:none;" d="M325 300L326 301L325 300M354 300L355 301L354 300z"/>
<path style="fill:#9fb8c5; stroke:none;" d="M355 300L355 301L360 301L355 300M369 300L369 301L374 301L369 300z"/>
<path style="fill:#119cd9; stroke:none;" d="M374.667 300.333L375.333 300.667L374.667 300.333z"/>
<path style="fill:#9fb8c5; stroke:none;" d="M325.333 301.667L325.667 302.333L325.333 301.667M395 301L396 302L395 301z"/>
<path style="fill:#119cd9; stroke:none;" d="M326 304L327 305L326 304z"/>
<path style="fill:#9fb8c5; stroke:none;" d="M394.333 304.667L394.667 305.333L394.333 304.667M250 305L250 308L251 308L250 305M326 305L327 306L326 305z"/>
<path style="fill:#119cd9; stroke:none;" d="M393 306L394 307L393 306z"/>
<path style="fill:#9fb8c5; stroke:none;" d="M327 307L328 308L327 307M393 307L394 308L393 307M174 308L175 309L174 308M266 308L267 309L266 308M203.333 309.667L203.667 310.333L203.333 309.667M251 309L252 310L251 309M328 309L329 310L328 309M392 309L393 310L392 309M96 310L96 313L97 313L96 310M158.333 310.667L158.667 311.333L158.333 310.667M176 310L177 311L176 310M252 310L253 311L252 310M264 310L265 311L264 310M178.667 311.333L179.333 311.667L178.667 311.333M184.667 311.333L185.333 311.667L184.667 311.333M254 311L254 312L257 312L254 311M261.667 311.333L262.333 311.667L261.667 311.333M329 311L330 312L329 311M391 311L392 312L391 311M279 312L280 313L279 312z"/>
<path style="fill:#119cd9; stroke:none;" d="M330 312L331 313L330 312M390 312L391 313L390 312z"/>
<path style="fill:#9fb8c5; stroke:none;" d="M202 313L203 314L202 313M330 313L331 314L330 313M97.3333 314.667L97.6667 315.333L97.3333 314.667M157 314L158 315L157 314M278 314L279 315L278 314M331 314L332 315L331 314M389 314L390 315L389 314M201 315L202 316L201 315z"/>
<path style="fill:#119cd9; stroke:none;" d="M332 315L333 316L332 315z"/>
<path style="fill:#9fb8c5; stroke:none;" d="M388 315L389 316L388 315M156.333 316.667L156.667 317.333L156.333 316.667M277 316L278 317L277 316z"/>
<path style="fill:#119cd9; stroke:none;" d="M333 316L334 317L333 316M387 316L388 317L387 316z"/>
<path style="fill:#9fb8c5; stroke:none;" d="M98 317L99 318L98 317z"/>
<path style="fill:#119cd9; stroke:none;" d="M334 317L335 318L334 317M386 317L387 318L386 317z"/>
<path style="fill:#9fb8c5; stroke:none;" d="M99.3333 318.667L99.6667 319.333L99.3333 318.667M155 318L156 319L155 318M199 318L200 319L199 318z"/>
<path style="fill:#119cd9; stroke:none;" d="M335 318L336 319L335 318M385 318L386 319L385 318z"/>
<path style="fill:#9fb8c5; stroke:none;" d="M198 319L199 320L198 319z"/>
<path style="fill:#119cd9; stroke:none;" d="M336 319L337 320L336 319M384 319L385 320L384 319z"/>
<path style="fill:#9fb8c5; stroke:none;" d="M100 320L101 321L100 320M154 320L155 321L154 320M197 320L198 321L197 320z"/>
<path style="fill:#119cd9; stroke:none;" d="M337 320L338 321L337 320z"/>
<path style="fill:#9fb8c5; stroke:none;" d="M383 320L384 321L383 320M166 321L166 324L167 324L168 321L166 321M196 321L197 322L196 321M338 321L339 322L338 321M382 321L383 322L382 321M101 322L102 323L101 322M169 322L170 323L169 322M194 322L195 323L194 322M271 322L272 323L271 322M339 322L340 323L339 322z"/>
<path style="fill:#119cd9; stroke:none;" d="M340 322L341 323L340 322M380 322L381 323L380 322z"/>
<path style="fill:#9fb8c5; stroke:none;" d="M102 323L103 324L102 323M152 323L153 324L152 323M192 323L193 324L192 323M247 323L248 324L247 323M269 323L270 324L269 323M341 323L342 324L341 323M379 323L380 324L379 323M103 324L104 325L103 324M151 324L152 325L151 324M173 324L174 325L173 324M189.667 324.333L190.333 324.667L189.667 324.333M250 324L251 325L250 324M266.667 324.333L267.333 324.667L266.667 324.333z"/>
<path style="fill:#119cd9; stroke:none;" d="M343 324L344 325L343 324M377 324L378 325L377 324z"/>
<path style="fill:#9fb8c5; stroke:none;" d="M104 325L105 326L104 325M150 325L151 326L150 325M177 325L177 326L187 326L177 325M246 325L246 328L247 328L246 325M254 325L254 326L264 326L254 325M344 325L345 326L344 325z"/>
<path style="fill:#119cd9; stroke:none;" d="M345 325L346 326L345 325M375 325L376 326L375 325z"/>
<path style="fill:#9fb8c5; stroke:none;" d="M105 326L106 327L105 326M149 326L150 327L149 326M347 326L348 327L347 326z"/>
<path style="fill:#119cd9; stroke:none;" d="M372 326L373 327L372 326z"/>
<path style="fill:#9fb8c5; stroke:none;" d="M373 326L374 327L373 326M106 327L107 328L106 327M148 327L149 328L148 327M235.333 327.667L235.667 328.333L235.333 327.667M349.667 327.333L350.333 327.667L349.667 327.333z"/>
<path style="fill:#119cd9; stroke:none;" d="M351 327L352 328L351 327M369 327L370 328L369 327z"/>
<path style="fill:#9fb8c5; stroke:none;" d="M370 327L371 328L370 327M107 328L108 329L107 328M147 328L148 329L147 328M353 328L353 329L356 329L353 328z"/>
<path style="fill:#119cd9; stroke:none;" d="M356 328L356 329L365 329L356 328z"/>
<path style="fill:#9fb8c5; stroke:none;" d="M365 328L365 329L368 329L365 328M108 329L109 330L108 329M167.333 329.667L167.667 330.333L167.333 329.667M314.333 329.667L314.667 330.333L314.333 329.667M110 330L111 331L110 330M144 330L145 331L144 330M112 331L113 332L112 331M142 331L143 332L142 331M247 331L248 332L247 331M114 332L115 333L114 332M140 332L141 333L140 332M234 332L235 333L234 332M116.667 333.333L117.333 333.667L116.667 333.333M137.667 333.333L138.333 333.667L137.667 333.333M168 333L169 334L168 333M313 333L314 334L313 333M119.667 334.333L120.333 334.667L119.667 334.333M134.667 334.333L135.333 334.667L134.667 334.333M248 334L249 335L248 334M125 335L125 336L130 336L125 335M233 335L234 336L233 335M169 336L170 337L169 336M249 336L250 337L249 336M232 337L233 338L232 337M170 338L171 339L170 338M250 338L251 339L250 338M231 339L232 340L231 339M310 339L311 340L310 339M171 340L172 341L171 340M251 340L252 341L251 340M172 341L173 342L172 341M230 341L231 342L230 341M309 341L310 342L309 341M229 342L230 343L229 342M308 342L309 343L308 342M174 344L175 345L174 344M254 344L255 345L254 344M175 345L176 346L175 345M227 345L228 346L227 345M255 345L256 346L255 345M176 346L177 347L176 346M226 346L227 347L226 346M256 346L257 347L256 346M177 347L178 348L177 347M225 347L226 348L225 347M257 347L258 348L257 347M178 348L179 349L178 348M224 348L225 349L224 348M258 348L259 349L258 348M179 349L180 350L179 349M301 349L302 350L301 349M221 350L222 351L221 350M261 350L262 351L261 350M300 350L301 351L300 350M182 351L183 352L182 351M220 351L221 352L220 351M298 351L299 352L298 351M218 352L219 353L218 352M264 352L265 353L264 352M185 353L186 354L185 353M266 353L267 354L266 353M187.667 354.333L188.333 354.667L187.667 354.333M214 354L215 355L214 354M269 354L270 355L269 354M292 354L293 355L292 354M190 355L191 356L190 355M211.667 355.333L212.333 355.667L211.667 355.333M272 355L273 356L272 355M288.667 355.333L289.333 355.667L288.667 355.333M193 356L193 357L196 357L193 356M207.667 356.333L208.333 356.667L207.667 356.333M277 356L277 357L285 357L277 356z"/>
<path style="fill:#010101; stroke:none;" d="M0 494L0 512L18 512L18 511C8.72092 508.25 5.05662 501.474 0 494M511 494C508.563 502.225 502.225 508.563 494 511L494 512L512 512L511 494z"/>
</svg>
