<?xml version="1.0" standalone="no"?>
<!DOCTYPE svg PUBLIC "-//W3C//DTD SVG 20010904//EN"
 "http://www.w3.org/TR/2001/REC-SVG-20010904/DTD/svg10.dtd">
<svg version="1.0" xmlns="http://www.w3.org/2000/svg"
 width="512.000000pt" height="512.000000pt" viewBox="0 0 512.000000 512.000000"
 preserveAspectRatio="xMidYMid meet">
<metadata>
Created by potrace 1.16, written by Peter Selinger 2001-2019
</metadata>
<g transform="translate(0.000000,512.000000) scale(0.100000,-0.100000)"
fill="#000000" stroke="none">
<path d="M2755 3549 c-101 -13 -205 -90 -256 -189 -20 -38 -24 -64 -27 -167
l-4 -123 31 11 c19 7 61 9 109 5 121 -10 133 -10 202 2 90 16 166 2 263 -47
l77 -39 0 132 c0 146 -12 200 -62 273 -72 107 -198 161 -333 142z"/>
<path d="M3499 3545 c-105 -34 -201 -127 -233 -227 -12 -38 -16 -91 -16 -215
l0 -165 47 42 c146 129 391 159 563 69 30 -16 65 -37 78 -46 l23 -16 -3 154
c-3 152 -4 156 -36 221 -59 119 -167 189 -302 195 -47 2 -92 -3 -121 -12z"/>
<path d="M4319 3545 c-104 -33 -189 -115 -228 -220 -17 -46 -21 -78 -21 -190
0 -74 2 -135 6 -135 3 0 22 11 42 25 53 36 154 65 227 65 l62 0 7 87 c8 108
33 164 89 201 36 24 50 27 128 27 99 0 101 5 32 65 -88 77 -236 110 -344 75z"/>
<path d="M4582 3264 c-21 -15 -22 -20 -22 -200 0 -101 -2 -184 -5 -184 -2 0
-25 13 -51 30 -159 100 -361 29 -447 -157 -18 -39 -22 -66 -22 -143 0 -82 4
-103 26 -151 88 -187 299 -256 449 -148 48 35 50 35 50 5 0 -14 7 -32 16 -40
20 -20 93 -21 120 -2 18 14 19 32 22 485 l3 471 -25 25 c-29 29 -80 33 -114 9z
m-114 -501 c157 -116 60 -370 -130 -338 -86 15 -158 123 -142 213 12 68 39
104 99 137 41 22 136 16 173 -12z"/>
<path d="M546 3174 c-13 -12 -16 -39 -16 -125 l0 -109 -49 0 c-33 0 -53 -5
-62 -17 -17 -20 -18 -108 -2 -124 6 -6 35 -14 62 -17 l51 -5 0 -166 c0 -232
16 -279 109 -326 19 -10 68 -19 113 -22 98 -7 118 6 118 77 0 59 -14 72 -85
78 -86 7 -89 15 -93 203 l-4 159 79 0 c105 0 123 12 123 84 0 72 -12 81 -114
81 l-81 0 -5 113 c-4 85 -9 115 -20 122 -25 16 -107 12 -124 -6z"/>
<path d="M3562 2959 c-68 -12 -143 -50 -192 -99 -161 -161 -111 -470 91 -568
98 -48 254 -52 364 -11 87 32 110 81 67 137 -23 32 -44 32 -122 3 -127 -47
-257 -13 -306 81 -31 59 -33 58 187 58 167 0 207 3 236 17 109 51 69 262 -64
340 -45 26 -145 54 -188 52 -11 -1 -44 -5 -73 -10z m155 -158 c51 -24 75 -59
71 -103 l-3 -33 -167 -3 c-184 -3 -184 -3 -154 56 46 88 159 125 253 83z"/>
<path d="M1510 2948 c-19 -10 -26 -23 -28 -51 l-3 -38 -36 32 c-52 45 -93 59
-176 59 -62 0 -83 -5 -135 -30 -72 -36 -125 -92 -160 -169 -22 -47 -27 -70
-27 -141 0 -72 5 -94 28 -145 93 -201 324 -268 470 -136 l40 36 -5 -29 c-12
-63 79 -101 133 -57 l24 19 0 311 c0 344 1 337 -66 347 -19 2 -45 -1 -59 -8z
m-138 -174 c49 -25 81 -80 86 -145 6 -77 -2 -102 -43 -148 -75 -83 -202 -76
-270 14 -119 156 54 369 227 279z"/>
<path d="M1780 2954 c-39 -16 -40 -24 -40 -473 0 -240 4 -441 8 -448 20 -32
105 -38 140 -11 9 8 12 53 12 164 0 85 2 154 5 154 3 0 22 -11 43 -24 124 -80
291 -53 393 62 113 128 109 341 -7 471 -105 117 -270 142 -384 60 -48 -35 -50
-35 -50 -5 0 13 -6 28 -13 34 -16 13 -86 23 -107 16z m387 -181 c49 -23 85
-82 91 -148 14 -167 -169 -263 -293 -154 -43 38 -58 85 -53 159 7 99 72 159
171 160 27 0 65 -7 84 -17z"/>
<path d="M2541 2947 c-15 -7 -28 -26 -33 -45 -5 -18 -8 -219 -6 -446 2 -318 6
-416 16 -428 27 -33 122 -29 144 5 4 7 8 78 8 160 0 81 2 147 5 147 2 0 21
-11 41 -25 147 -100 361 -30 443 144 22 48 26 69 26 151 0 88 -3 101 -33 162
-36 73 -87 124 -161 160 -35 17 -63 22 -121 22 -75 0 -111 -12 -176 -59 -20
-15 -22 -14 -27 14 -9 43 -76 64 -126 38z m399 -179 c106 -73 116 -221 20
-302 -90 -75 -221 -42 -271 69 -40 87 -9 184 76 236 44 28 132 26 175 -3z"/>
<path d="M3252 2183 c6 -151 72 -253 206 -316 58 -28 78 -32 147 -31 69 0 91
5 145 31 114 53 193 158 207 272 l6 53 -24 -16 c-53 -34 -144 -58 -246 -63
-168 -9 -277 22 -387 111 l-58 48 4 -89z"/>
<path d="M3100 2188 c-60 -39 -141 -61 -221 -62 l-67 -1 -4 -68 c-7 -89 -41
-140 -117 -175 -45 -21 -64 -24 -120 -19 -36 2 -74 8 -83 12 -46 19 1 -128 63
-199 25 -28 66 -58 107 -78 59 -29 76 -33 152 -33 71 0 94 4 140 26 72 34 136
97 168 167 25 53 27 68 30 217 2 88 2 178 0 201 l-3 40 -45 -28z"/>
</g>
</svg>
