<svg id="svg" version="1.1" xmlns="http://www.w3.org/2000/svg" style="display: block;" viewBox="0 0 482 482"><path d="M0 0 C159.06 0 318.12 0 482 0 C482 159.06 482 318.12 482 482 C322.94 482 163.88 482 0 482 C0 322.94 0 163.88 0 0 Z " transform="translate(0,0)" style="fill: #FEFEFE;"/><path d="M0 0 C0.7528125 -0.0103125 1.505625 -0.020625 2.28125 -0.03125 C5.50004263 0.73944683 6.50969271 1.84035518 8.5 4.5 C9.1009339 7.50242473 9.04638492 10.46590386 9.01757812 13.51953125 C9.0245874 14.43052582 9.03159668 15.34152039 9.03881836 16.28012085 C9.05642252 19.29122403 9.04476689 22.30138727 9.03125 25.3125 C9.03394421 27.40470561 9.03782604 29.49691001 9.04284668 31.58911133 C9.04874502 35.97391684 9.04016779 40.35839643 9.02148438 44.74316406 C8.99869485 50.36586958 9.0118161 55.9878114 9.03577423 61.61048889 C9.05022301 65.93076337 9.0456304 70.25085656 9.03526306 74.57113647 C9.03259324 76.64439992 9.03587448 78.71767979 9.04518127 80.79092407 C9.05533154 83.68788296 9.03986689 86.58360228 9.01757812 89.48046875 C9.02567505 90.33877289 9.03377197 91.19707703 9.04211426 92.08139038 C8.95930305 97.88623398 8.95930305 97.88623398 6.60632324 101.03051758 C3.5129196 103.18863946 1.2910586 103.05733319 -2.375 102.89453125 C-4.5 102.5 -4.5 102.5 -7 100.6875 C-8.5 98.5 -8.5 98.5 -9.5 95.5 C-10.16 96.098125 -10.82 96.69625 -11.5 97.3125 C-19.0800038 102.8395861 -26.34761034 103.29435835 -35.5 102.5 C-44.18922474 101.10432141 -50.60817209 94.05917281 -55.9375 87.5 C-61.05100634 77.68206782 -62.47645124 66.55096803 -59.80859375 55.68359375 C-58.87775348 53.44412449 -57.8308493 51.52520546 -56.5 49.5 C-56.06429688 48.80648437 -55.62859375 48.11296875 -55.1796875 47.3984375 C-50.21102349 40.14907526 -43.23091151 34.3644134 -34.5 32.5 C-25.10169306 31.17836309 -18.49499614 33.59984107 -10.5 38.5 C-10.17 38.83 -9.84 39.16 -9.5 39.5 C-9.4906543 38.46069336 -9.48130859 37.42138672 -9.47167969 36.35058594 C-9.43175877 32.48866162 -9.36599522 28.6275322 -9.29248047 24.76611328 C-9.26428282 23.09596989 -9.24306221 21.42569335 -9.22900391 19.75537109 C-9.20755663 17.35184628 -9.16090155 14.94992017 -9.109375 12.546875 C-9.10814636 11.80193787 -9.10691772 11.05700073 -9.10565186 10.28948975 C-9.00702654 6.78622586 -8.76480816 4.84431868 -6.60058594 2.03027344 C-4.184518 0.27017188 -2.96308377 -0.04059019 0 0 Z " transform="translate(445.5,172.5)" style="fill: #465B67;"/><path d="M0 0 C6.9110527 0.1790974 6.9110527 0.1790974 10.1875 2.44140625 C11.5625 4.62890625 11.5625 4.62890625 11.5625 7.62890625 C12.17738281 7.20738281 12.79226562 6.78585938 13.42578125 6.3515625 C14.23402344 5.80371094 15.04226562 5.25585938 15.875 4.69140625 C16.67550781 4.14613281 17.47601563 3.60085937 18.30078125 3.0390625 C24.11941188 -0.58878838 30.95568159 -0.09307597 37.5625 0.62890625 C44.22067991 2.89908658 50.0565253 6.13724958 54.5625 11.62890625 C55.20703125 12.38945312 55.8515625 13.15 56.515625 13.93359375 C62.5918438 21.93472156 64.78313938 30.72965504 63.5625 40.62890625 C61.446901 51.77213761 55.80091675 60.05709875 46.5625 66.62890625 C41.25585432 69.39980148 36.98065829 70.14633356 31.125 70.06640625 C30.37653809 70.0617334 29.62807617 70.05706055 28.85693359 70.05224609 C23.14530706 69.89882175 19.35344606 68.88674957 14.5625 65.62890625 C13.5725 64.96890625 12.5825 64.30890625 11.5625 63.62890625 C11.57821045 64.45616211 11.5939209 65.28341797 11.61010742 66.13574219 C11.67246304 69.88339402 11.71149346 73.6309367 11.75 77.37890625 C11.77513672 78.68085938 11.80027344 79.9828125 11.82617188 81.32421875 C11.83583984 82.57460938 11.84550781 83.825 11.85546875 85.11328125 C11.8711792 86.26538086 11.88688965 87.41748047 11.90307617 88.60449219 C11.52698626 91.94427843 10.92863664 93.28249606 8.5625 95.62890625 C4.92467368 96.84151502 2.38514001 97.02435177 -1.4375 96.62890625 C-5.13034636 93.88102241 -6.31346297 92.3856439 -7.06568909 87.79638672 C-7.09222175 86.27985417 -7.09138597 84.76268727 -7.06860352 83.24609375 C-7.07575882 82.41458801 -7.08291412 81.58308228 -7.09028625 80.72637939 C-7.10715886 77.98499164 -7.08777987 75.24524259 -7.06640625 72.50390625 C-7.06723508 70.59488795 -7.06969501 68.68586972 -7.07371521 66.77685547 C-7.07657222 62.77875246 -7.06188145 58.78120996 -7.03442383 54.78320312 C-7.00034124 49.66165906 -7.00636019 44.54111718 -7.0250864 39.41952515 C-7.03566144 35.47834947 -7.02671398 31.53740649 -7.01170158 27.59625244 C-7.00652302 25.70803519 -7.00699763 23.8197936 -7.01324654 21.93157959 C-7.01870485 19.29109558 -6.99830471 16.65203994 -6.97094727 14.01171875 C-6.97747314 13.23338684 -6.98399902 12.45505493 -6.99072266 11.65313721 C-6.92556937 7.94979033 -6.54942316 5.8064972 -4.5565033 2.64428711 C-2.4375 0.62890625 -2.4375 0.62890625 0 0 Z " transform="translate(161.4375,204.37109375)" style="fill: #475D68;"/><path d="M0 0 C2.5 1.25 2.5 1.25 4 3 C4.37238799 4.32295732 4.71127147 5.65630185 5 7 C5.61488281 6.57847656 6.22976562 6.15695313 6.86328125 5.72265625 C7.67152344 5.17480469 8.47976562 4.62695312 9.3125 4.0625 C10.11300781 3.51722656 10.91351563 2.97195312 11.73828125 2.41015625 C17.5684149 -1.22486663 24.38090399 -0.698188 31 0 C41.50693603 3.25007939 48.90394979 10.38667537 54 20 C55.87606158 25.2705409 56.33719216 29.97883371 56.3125 35.5 C56.32861328 36.22058594 56.34472656 36.94117188 56.36132812 37.68359375 C56.36923362 46.42707435 52.2729434 54.24621387 46.47265625 60.69921875 C38.84683341 67.82263444 30.52806648 69.64698852 20.27734375 69.32421875 C13.53999272 68.65771084 9.21075522 66.31112055 4 62 C4.02618408 62.92337158 4.05236816 63.84674316 4.0793457 64.7980957 C4.16458305 68.22550017 4.22725175 71.65177855 4.2746582 75.07983398 C4.2997981 76.56308768 4.33391592 78.04621753 4.37719727 79.52905273 C4.43788258 81.66160595 4.46621116 83.79252205 4.48828125 85.92578125 C4.51446533 87.20880127 4.54064941 88.49182129 4.56762695 89.8137207 C4 93 4 93 1.6027832 94.91723633 C-2.31325253 96.54631601 -4.77001542 96.40935335 -9 96 C-11.67431489 94.18836733 -11.95920359 93.12238923 -13 90 C-13.11172337 87.26805362 -13.1676668 84.56094742 -13.17700195 81.82836914 C-13.18357315 80.99554916 -13.19014435 80.16272919 -13.19691467 79.30467224 C-13.21662959 76.548166 -13.22830421 73.79171412 -13.23828125 71.03515625 C-13.24235678 70.09409971 -13.2464323 69.15304317 -13.25063133 68.18346977 C-13.27148106 63.20573013 -13.2857894 58.22801799 -13.29516602 53.25024414 C-13.30624806 48.1040058 -13.34067168 42.95819776 -13.38033772 37.81211185 C-13.40644739 33.85818158 -13.41485265 29.90435491 -13.41844749 25.95034599 C-13.42332551 24.05289226 -13.4349739 22.15544351 -13.45348549 20.25807381 C-13.4777645 17.60537375 -13.47693312 14.95380192 -13.4699707 12.30102539 C-13.48278076 11.51595612 -13.49559082 10.73088684 -13.50878906 9.92202759 C-13.47467923 6.36171795 -13.29426367 4.38719579 -11.10929871 1.51219177 C-7.57037104 -1.02492508 -4.17637681 -0.63720455 0 0 Z " transform="translate(245,205)" style="fill: #455B67;"/><path d="M0 0 C3.125 2.25 3.125 2.25 5 4 C5.103125 3.05125 5.20625 2.1025 5.3125 1.125 C6 -2 6 -2 9 -4 C11.12109375 -4.3359375 11.12109375 -4.3359375 13.4375 -4.375 C14.19933594 -4.40335938 14.96117187 -4.43171875 15.74609375 -4.4609375 C18.91626964 -3.8126173 19.98524305 -2.50107759 22 0 C22.49447632 2.76989746 22.49447632 2.76989746 22.48583984 5.99023438 C22.49506973 7.80231384 22.49506973 7.80231384 22.50448608 9.65100098 C22.49011505 10.95210815 22.47574402 12.25321533 22.4609375 13.59375 C22.45855174 14.94608382 22.45764803 16.298421 22.4581604 17.65075684 C22.4550357 20.48206396 22.43849736 23.31286352 22.41162109 26.14404297 C22.37764129 29.76899621 22.36999273 33.39339216 22.37151146 37.01848602 C22.37096699 39.81009213 22.35998752 42.60157699 22.34550858 45.3931427 C22.33606985 47.37841315 22.33258911 49.36370904 22.32919312 51.34899902 C22.31643341 52.557052 22.30367371 53.76510498 22.29052734 55.00976562 C22.27909195 56.6038324 22.27909195 56.6038324 22.26742554 58.23010254 C21.99818527 61.0187963 21.52760057 62.67016589 20 65 C16.54968739 66.72515631 12.77283696 66.49677924 9 66 C5.96784325 63.80168636 5.18345602 62.55036806 4 59 C3.07767578 59.63228516 3.07767578 59.63228516 2.13671875 60.27734375 C1.32847656 60.82519531 0.52023438 61.37304688 -0.3125 61.9375 C-1.51326172 62.75541016 -1.51326172 62.75541016 -2.73828125 63.58984375 C-8.76499717 67.34743347 -16.16739435 66.60672987 -23 66 C-26.75588647 64.85195565 -29.77349419 63.21969469 -33 61 C-33.64453125 60.56558594 -34.2890625 60.13117188 -34.953125 59.68359375 C-41.59118079 54.61846857 -45.84789745 46.97948525 -48 39 C-48.95028202 28.43639988 -48.56682108 19.09208549 -42.01171875 10.34765625 C-30.72712064 -2.92490214 -16.21671659 -8.63335991 0 0 Z " transform="translate(124,209)" style="fill: #465C67;"/><path d="M0 0 C3.575554 2.72650941 6.03686307 5.94428118 8.3359375 9.78125 C8.70976562 10.3896875 9.08359375 10.998125 9.46875 11.625 C11.5114392 16.7041191 11.37677734 23.73749673 9.61328125 28.89453125 C7.47459332 32.38396946 5.14987535 33.65814659 1.3359375 34.78125 C-1.81923467 35.04514179 -4.95684187 35.01406252 -8.12109375 34.9765625 C-9.02405685 34.9737326 -9.92701996 34.97090271 -10.85734558 34.96798706 C-13.73055484 34.95682607 -16.60344805 34.93172897 -19.4765625 34.90625 C-21.42903194 34.89621493 -23.38150629 34.88709 -25.33398438 34.87890625 C-30.11079816 34.85690008 -34.88737681 34.82239831 -39.6640625 34.78125 C-39.07010212 36.2346816 -38.46346717 37.68293771 -37.8515625 39.12890625 C-37.51511719 39.93593994 -37.17867188 40.74297363 -36.83203125 41.57446289 C-35.12046818 44.80832965 -32.85712713 46.1181955 -29.6640625 47.78125 C-29.05046875 48.13832031 -28.436875 48.49539063 -27.8046875 48.86328125 C-21.32868574 51.64039879 -13.13585284 49.82497327 -6.6640625 47.78125 C-5.643125 47.1934375 -5.643125 47.1934375 -4.6015625 46.59375 C-1.36340315 45.23581221 1.02471628 45.87818967 4.3359375 46.78125 C6.47338494 49.26344702 7.18500321 51.11043093 7.8984375 54.28125 C7.21388982 57.32368413 5.96720702 58.74064704 3.47265625 60.578125 C-7.39205422 66.69573163 -21.10292219 67.76769865 -33.1015625 64.65625 C-43.09327416 61.03509276 -50.03722462 54.63790505 -54.984375 45.28515625 C-58.83515511 36.22370515 -59.44635968 25.64939356 -56.0390625 16.34375 C-51.47603033 6.77405753 -44.97790168 0.07598267 -35.21875 -4.3203125 C-22.94756407 -8.54223178 -10.81224269 -6.78676157 0 0 Z " transform="translate(366.6640625,210.21875)" style="fill: #455B67;"/><path d="M0 0 C8.69715961 5.94060224 14.80200713 14.67501311 17 25 C17.34413195 29.86250291 17.28467903 34.69108976 17.1875 39.5625 C17.16719727 41.50479492 17.16719727 41.50479492 17.14648438 43.48632812 C17.1113737 46.65799214 17.06219347 49.8287709 17 53 C14.28412574 51.66494154 11.77209771 50.23521356 9.25 48.5625 C-2.01770462 41.46258947 -15.54973438 40.25501213 -28.51171875 42.6484375 C-38.48650987 45.46399977 -47.55329649 49.77586838 -54 58 C-54.66 58 -55.32 58 -56 58 C-56.07493936 53.62584724 -56.12896881 49.25204845 -56.16479492 44.87744141 C-56.17975184 43.39365111 -56.20012495 41.90990401 -56.22631836 40.42626953 C-56.46841472 26.34670493 -54.84085186 15.45670421 -44.9609375 4.80078125 C-32.38386927 -7.22076276 -14.96964235 -8.82538616 0 0 Z " transform="translate(362,150)" style="fill: #066BA2;"/><path d="M0 0 C7.19643284 4.91163382 11.94275134 12.51211056 14.6796875 20.71484375 C15.02026367 24.26342773 15.02026367 24.26342773 14.97265625 27.9609375 C14.96841141 28.61691422 14.96416656 29.27289093 14.95979309 29.94874573 C14.94317529 32.01705286 14.90555988 34.08433776 14.8671875 36.15234375 C14.85211861 37.565741 14.83843409 38.97915373 14.82617188 40.39257812 C14.79332854 43.8336581 14.74166765 47.27415094 14.6796875 50.71484375 C10.16218137 48.92800536 5.78876531 46.91394378 1.3984375 44.8359375 C-3.73504874 42.719112 -8.63092997 42.52348639 -14.1328125 42.52734375 C-15.20184814 42.52420166 -15.20184814 42.52420166 -16.29248047 42.52099609 C-20.01085892 42.55248614 -23.38100058 42.76708968 -26.9453125 43.83984375 C-31.00930254 44.8934708 -32.42607419 44.0892808 -36.3203125 42.71484375 C-42.77583009 42.18505963 -48.11897741 42.77836736 -54.3203125 44.71484375 C-54.9640346 29.87556383 -55.38171247 17.82574291 -45.5703125 5.77734375 C-41.64258409 1.68657755 -37.47278806 -0.97576042 -32.3203125 -3.28515625 C-31.3921875 -3.71828125 -30.4640625 -4.15140625 -29.5078125 -4.59765625 C-19.10711902 -6.84094308 -9.28246435 -5.1412976 0 0 Z " transform="translate(282.3203125,150.28515625)" style="fill: #0287CC;"/><path d="M0 0 C0.09977129 5.35272952 0.1718895 10.70490357 0.21972656 16.05834961 C0.23969343 17.87485193 0.26687687 19.69129121 0.30175781 21.50756836 C0.57143392 35.92334259 0.00226955 46.92532637 -10.48828125 57.83203125 C-19.40882164 65.53172008 -29.56655754 66.99282326 -40.9609375 66.26513672 C-48.99783868 65.22010862 -55.97024993 60.04230476 -61.3125 54.19921875 C-66.40692292 47.55995925 -68.59802793 41.30742276 -69 33 C-68.05125 33.33 -67.1025 33.66 -66.125 34 C-59.18201208 35.9676484 -51.67048109 35.76887894 -45 33 C-39.7705776 29.59707025 -36.79467158 26.08194257 -35 20 C-34.50022709 16.33829746 -34.19349969 12.68983893 -34 9 C-33.06800781 8.98582031 -32.13601563 8.97164063 -31.17578125 8.95703125 C-20.33507825 8.551464 -9.17327683 0 0 0 Z " transform="translate(297,279)" style="fill: #0186CC;"/><path d="M0 0 C0.10002068 4.90716833 0.17200237 9.81372362 0.21972656 14.72167969 C0.23965287 16.38584754 0.26680428 18.04994714 0.30175781 19.71386719 C0.53480349 31.10568815 0.37704645 41.29456229 -6.078125 51.18359375 C-14.56957127 59.99576012 -21.80828197 64.96220821 -34.375 65.3125 C-44.69860658 65.11169758 -53.47457631 61.70960448 -60.7578125 54.18359375 C-66.55623662 46.97198586 -69.68601183 39.26115966 -69 30 C-68.47792969 30.2165625 -67.95585937 30.433125 -67.41796875 30.65625 C-59.26344382 33.74097397 -50.86758634 34.5444294 -42.71484375 30.9765625 C-37.82571744 28.19232201 -34.89199734 24.20299269 -33 19 C-32.47332651 15.00648551 -32.18876282 11.02260073 -32 7 C-31.05640625 6.97421875 -30.1128125 6.9484375 -29.140625 6.921875 C-19.23389946 6.48422849 -8.63150375 0 0 0 Z " transform="translate(218,281)" style="fill: #02A4E0;"/><path d="M0 0 C0.95648438 -0.02835938 1.91296875 -0.05671875 2.8984375 -0.0859375 C5.625 0.375 5.625 0.375 7.9609375 1.7578125 C10.57221745 5.86475514 10.04806858 9.87227061 9.875 14.625 C9.85695313 15.56085938 9.83890625 16.49671875 9.8203125 17.4609375 C9.77325673 19.76667015 9.70753713 22.07030945 9.625 24.375 C10.73359375 24.32859375 11.8421875 24.2821875 12.984375 24.234375 C14.44788968 24.19684898 15.91143356 24.16044971 17.375 24.125 C18.10460938 24.09148437 18.83421875 24.05796875 19.5859375 24.0234375 C23.09224807 23.9596864 25.19798548 24.07689553 28.109375 26.109375 C29.78870756 28.61971748 30.1659894 29.88277368 30.125 32.875 C30.1353125 33.6278125 30.145625 34.380625 30.15625 35.15625 C29.39218238 38.34735595 28.2444962 39.39440532 25.625 41.375 C22.73050051 41.6656124 20.24550065 41.75686045 17.375 41.625 C16.62992188 41.60695312 15.88484375 41.58890625 15.1171875 41.5703125 C13.28590299 41.52335649 11.45528351 41.45161652 9.625 41.375 C9.71843603 46.03844559 9.82450614 50.70136586 9.94238281 55.36425781 C9.98070585 56.95109138 10.01555288 58.53801281 10.046875 60.125 C10.09245431 62.40396566 10.15045838 64.68232468 10.2109375 66.9609375 C10.22248871 67.67244965 10.23403992 68.38396179 10.24594116 69.11703491 C10.25908239 73.19603657 10.25908239 73.19603657 12.625 76.375 C15.41772024 76.72026588 18.18518113 76.81756407 20.99609375 76.93359375 C23.625 77.375 23.625 77.375 25.44921875 78.59765625 C27.00990745 80.95683684 27.02511571 82.56204063 27 85.375 C27.01160156 86.674375 27.01160156 86.674375 27.0234375 88 C26.625 90.375 26.625 90.375 25.58203125 92.16015625 C22.53577099 94.05114815 19.41444225 93.86248228 15.9375 93.8125 C14.85601685 93.80114014 14.85601685 93.80114014 13.75268555 93.78955078 C7.21546615 93.5869953 2.85518224 92.42155431 -1.88671875 87.94921875 C-6.98040741 82.30091643 -7.66732069 77.1562688 -7.5703125 69.79296875 C-7.5674826 68.97878983 -7.56465271 68.1646109 -7.56173706 67.32575989 C-7.55058584 64.737854 -7.52549083 62.15030042 -7.5 59.5625 C-7.48996365 57.80273939 -7.48083894 56.04297333 -7.47265625 54.28320312 C-7.4506631 49.98033402 -7.41616836 45.67772664 -7.375 41.375 C-8.40560547 41.42720703 -8.40560547 41.42720703 -9.45703125 41.48046875 C-10.35808594 41.50753906 -11.25914063 41.53460938 -12.1875 41.5625 C-13.52748047 41.61470703 -13.52748047 41.61470703 -14.89453125 41.66796875 C-17.375 41.375 -17.375 41.375 -19.17431641 40.01171875 C-20.83187565 37.75220732 -20.77479716 36.15228164 -20.75 33.375 C-20.75773437 32.50875 -20.76546875 31.6425 -20.7734375 30.75 C-20.28780625 27.85525687 -19.69347386 27.13162931 -17.375 25.375 C-14.89453125 25.08203125 -14.89453125 25.08203125 -12.1875 25.1875 C-10.83591797 25.22810547 -10.83591797 25.22810547 -9.45703125 25.26953125 C-8.42642578 25.32173828 -8.42642578 25.32173828 -7.375 25.375 C-7.38547363 24.68873535 -7.39594727 24.0024707 -7.40673828 23.29541016 C-7.44821874 20.19697711 -7.47430069 17.09860239 -7.5 14 C-7.51675781 12.91976562 -7.53351562 11.83953125 -7.55078125 10.7265625 C-7.55722656 9.6953125 -7.56367187 8.6640625 -7.5703125 7.6015625 C-7.58078613 6.64846191 -7.59125977 5.69536133 -7.60205078 4.71337891 C-7.13314278 -0.11586934 -4.1324987 0.05539542 0 0 Z " transform="translate(42.375,181.625)" style="fill: #465C67;"/><path d="M0 0 C0.90621094 0.54269531 1.81242187 1.08539063 2.74609375 1.64453125 C16.53776157 9.80330362 28.51517963 13.57913925 44.6875 9.875 C45.41324219 9.66617187 46.13898438 9.45734375 46.88671875 9.2421875 C49.71224388 8.91837501 51.39819521 9.9028534 54 11 C55.92903132 11.2759478 57.8689032 11.48449903 59.8125 11.625 C60.78832031 11.69976562 61.76414063 11.77453125 62.76953125 11.8515625 C63.50558594 11.90054687 64.24164063 11.94953125 65 12 C64.96692147 22.40319903 63.1003169 30.13518164 56.17578125 38.09765625 C49.25291455 44.71159178 41.99476298 47.20358746 32.5 47.5 C23.04452808 47.20481407 15.78340627 44.7066943 8.82421875 38.19921875 C3.44309426 31.71191021 -0.15184982 23.68857238 -0.09765625 15.234375 C-0.09443359 14.34492188 -0.09121094 13.45546875 -0.08789062 12.5390625 C-0.07532227 11.15847656 -0.07532227 11.15847656 -0.0625 9.75 C-0.05798828 8.81414062 -0.05347656 7.87828125 -0.04882812 6.9140625 C-0.03706918 4.60930959 -0.02063426 2.30468773 0 0 Z " transform="translate(77,277)" style="fill: #3FC5F3;"/><path d="M0 0 C4.88184762 3.00156002 9.19673931 6.72133172 13 11 C13 11.66 13 12.32 13 13 C11.40671875 12.91298828 11.40671875 12.91298828 9.78125 12.82421875 C-0.48172249 12.25837095 -0.48172249 12.25837095 -9.51953125 16.56640625 C-13.88614909 20.79476707 -16.01415882 24.14234189 -16.31640625 30.23046875 C-16.35830078 31.03291016 -16.40019531 31.83535156 -16.44335938 32.66210938 C-16.48267578 33.49548828 -16.52199219 34.32886719 -16.5625 35.1875 C-16.62727539 36.4549707 -16.62727539 36.4549707 -16.69335938 37.74804688 C-16.79931518 39.83184433 -16.9001502 41.91590103 -17 44 C-18.52367187 44.02126953 -18.52367187 44.02126953 -20.078125 44.04296875 C-30.43996287 44.34360479 -38.71789245 46.13827155 -47.70703125 51.6640625 C-50 53 -50 53 -52 53 C-52.10007438 49.05322029 -52.17202516 45.10694795 -52.21972656 41.15917969 C-52.24935477 39.16835522 -52.30022326 37.17788292 -52.3515625 35.1875 C-52.47648316 22.82035506 -49.9368928 15.15884764 -41.37109375 6.19921875 C-30.23554514 -4.12914017 -13.89714535 -6.58027377 0 0 Z " transform="translate(441,148)" style="fill: #02588B;"/><path d="M0 0 C0.969375 0.86625 1.93875 1.7325 2.9375 2.625 C16.62560424 14.27912891 29.35378974 17.74136894 47 17 C55.94661214 16.26494971 63.76579858 13.47961415 72 10 C73.07987329 18.94752151 69.67243303 25.62340744 65 33 C60.59876451 38.17998292 55.21302738 41.39157711 49 44 C48.0925 44.4125 47.185 44.825 46.25 45.25 C35.66400778 47.69292128 25.41858419 45.97462519 16.25 40.25 C8.38954751 34.60375948 2.49556322 26.73003449 0.3671875 17.15234375 C-0.04488174 13.61468545 -0.09609284 10.18584102 -0.0625 6.625 C-0.05347656 5.37976563 -0.04445313 4.13453125 -0.03515625 2.8515625 C-0.02355469 1.91054688 -0.01195312 0.96953125 0 0 Z " transform="translate(306,272)" style="fill: #066CA2;"/><path d="M0 0 C4.60415275 3.16854055 7.09240677 6.41097852 8.5546875 11.89453125 C9.43733519 18.7210849 8.6150913 24.24130024 4.5546875 29.89453125 C-0.70021644 34.77408491 -4.29350925 35.31481666 -11.328125 35.23046875 C-16.03030372 34.72371766 -19.0888263 33.20260659 -22.4453125 29.89453125 C-26.35154206 24.98954981 -27.14706057 19.74112645 -26.890625 13.578125 C-25.90255343 7.62369372 -22.96461744 4.13478018 -18.3828125 0.39453125 C-12.73292842 -2.34405885 -5.71586933 -2.58401121 0 0 Z " transform="translate(119.4453125,223.10546875)" style="fill: #FCFDFD;"/><path d="M0 0 C4.31789473 3.90666666 8.14640463 7.5257258 8.8984375 13.57421875 C9.16855384 20.19206911 7.92346993 24.30350823 3.625 29.375 C-1.4604373 34.09719177 -5.74118099 34.84792945 -12.51171875 34.78515625 C-18.3974706 33.94204036 -21.89163586 30.32191543 -25.375 25.75 C-27.10770086 19.90213459 -27.61406937 13.77831054 -25.49609375 7.9609375 C-20.11611914 -1.5206019 -9.99626158 -4.81301484 0 0 Z " transform="translate(199.375,223.625)" style="fill: #FBFCFC;"/><path d="M0 0 C3.7619371 3.2387538 5.73962325 6.24992677 6.4765625 11.203125 C6.62286854 17.02876558 6.60790511 22.18945985 3 27 C-1.4155074 31.40344318 -5.08453289 33.14883281 -11.3125 33.3125 C-16.37478087 33.25907223 -19.14510059 32.47881166 -23 29 C-28.15944383 23.28277846 -28.34780644 18.65947403 -28.28125 11.171875 C-27.79918919 5.73530031 -25.35795474 3.25610813 -21.5 -0.3125 C-14.87743887 -4.78272877 -6.67792284 -3.95728761 0 0 Z " transform="translate(278,225)" style="fill: #FCFDFD;"/><path d="M0 0 C7.97545373 4.96147412 13.50948745 11.82454359 16.6875 20.671875 C16.6875 21.661875 16.6875 22.651875 16.6875 23.671875 C15.61628906 23.24261719 15.61628906 23.24261719 14.5234375 22.8046875 C13.58757812 22.43085938 12.65171875 22.05703125 11.6875 21.671875 C10.83414063 21.31867188 9.98078125 20.96546875 9.1015625 20.6015625 C-1.71593262 16.51091309 -12.04455937 16.72366736 -23.19140625 19.359375 C-26.48667741 19.84486615 -29.17260504 18.66342078 -32.3125 17.671875 C-38.30316135 17.19754111 -43.71631148 17.25190159 -49.3125 19.671875 C-47.83253782 12.15298669 -42.64302632 6.14989367 -36.41796875 1.95703125 C-35.37576172 1.32087891 -35.37576172 1.32087891 -34.3125 0.671875 C-33.66925781 0.25808594 -33.02601563 -0.15570313 -32.36328125 -0.58203125 C-22.63278976 -5.9013666 -9.70680769 -4.69514068 0 0 Z " transform="translate(200.3125,175.328125)" style="fill: #05A5E0;"/><path d="M0 0 C4.4496728 2.56042625 7.67004862 5.29261345 9.72265625 10.08203125 C10.46093786 16.73505171 10.89793538 23.51499241 6.72265625 29.08203125 C1.12973401 34.52580889 -2.62285212 35.4366795 -10.29296875 35.36328125 C-15.59541784 34.86357401 -18.1499903 32.33126075 -21.58984375 28.51953125 C-25.24654291 23.23763246 -24.9604037 17.27667837 -24.27734375 11.08203125 C-22.44057291 5.96707748 -19.20787506 2.0935986 -14.29296875 -0.2890625 C-9.44559743 -1.8015175 -4.73855486 -1.91005213 0 0 Z " transform="translate(426.27734375,222.91796875)" style="fill: #FCFDFD;"/><path d="M0 0 C2.44068328 1.43861413 3.76815993 2.517725 4.921875 5.1328125 C5.234375 8.2578125 5.234375 8.2578125 4.921875 11.1328125 C2.921875 13.1328125 2.921875 13.1328125 -0.24267578 13.35986328 C-1.58630463 13.35954639 -2.9299591 13.34823431 -4.2734375 13.328125 C-4.98088104 13.3252951 -5.68832458 13.32246521 -6.41720581 13.31954956 C-8.6793501 13.30834387 -10.94110015 13.28323929 -13.203125 13.2578125 C-14.73567137 13.24778317 -16.26822394 13.23865724 -17.80078125 13.23046875 C-21.56004801 13.20840336 -25.31901964 13.17387146 -29.078125 13.1328125 C-28.38488265 7.89335978 -27.07471532 4.6545604 -23.078125 1.1328125 C-15.3202323 -4.23803629 -8.27282026 -4.0793562 0 0 Z " transform="translate(356.078125,221.8671875)" style="fill: #FAFAFB;"/></svg>